# xmcd
#
# Track frame offsets:
# 150
# 13566
# 28661
# 42783
# 63483
# 85337
# 104165
# 119145
# 140782
# 162485
# 181642
# 192791
# 214910
# 233278
#
# Disc length: 3390 seconds
#
# Revision: 0
# Processed by: cddbd v1.5.1PL0 Copyright (c) Steve Scherf et al.
# Submitted via: Audion 3.0.2 (http://www.panic.com/audion/)
#
DISCID=c30d3c0e
DTITLE=Kristen McNamara - Restless
DYEAR=1900
DGENRE=
TTITLE0=Restless Heart
TTITLE1=Love Don't Get More Real Than You
TTITLE2=Everything
TTITLE3=#1 Fan
TTITLE4=Blow Away
TTITLE5=You Know Where To Look
TTITLE6=Give Us The Peace
TTITLE7=Black Velvet
TTITLE8=What Have You Done For Me Lately?
TTITLE9=Just Thinking
TTITLE10=Cowboy Sweetheart
TTITLE11=What I Was Sent Here To Do
TTITLE12=A Moment Of Silence
TTITLE13=In Love With You
EXTD=
EXTT0=
EXTT1=
EXTT2=
EXTT3=
EXTT4=
EXTT5=
EXTT6=
EXTT7=
EXTT8=
EXTT9=
EXTT10=
EXTT11=
EXTT12=
EXTT13=
PLAYORDER=
